<?xml version="1.0" encoding="UTF-8" standalone="no"?>
<svg width="201px" height="185px" viewBox="0 0 201 185" version="1.1" xmlns="http://www.w3.org/2000/svg" xmlns:xlink="http://www.w3.org/1999/xlink" xmlns:sketch="http://www.bohemiancoding.com/sketch/ns">
    <!-- Generator: Sketch 3.3.3 (12072) - http://www.bohemiancoding.com/sketch -->
    <title>logo</title>
    <desc>Created with Sketch.</desc>
    <defs></defs>
    <g id="Page-1" stroke="none" stroke-width="1" fill="none" fill-rule="evenodd" sketch:type="MSPage">
        <path d="M155,158.572465 L155,66 L155,52.5 L182,52.5 L182,66 L182,171 L182,184.5 L181.784419,184.5 L155,158.572465 Z" id="Shape" fill="#F94A13" sketch:type="MSShapeGroup"></path>
        <path d="M38,158.572465 L38,18.5 L38,5 L65,5 L65,18.5 L65,171 L65,184.5 L64.7844192,184.5 L38,158.572465 Z" id="Shape" fill="#000000" sketch:type="MSShapeGroup"></path>
        <path d="M33.8834849,36.2773351 C34.0245636,36.1408311 34.0245636,36.1408311 34.164274,36.0056535 C41.0589968,29.3351201 43.5068308,27.8953918 48.711731,27.9359373 C58.2577125,28.0102992 73.90023,34.5082276 97.64994,50.0180397 C125.20787,68.0148202 147.295351,76.4943576 165.016656,76.4943576 C181.240274,76.4943576 193.212295,69.407443 200.277932,57.9332596 C200.409541,57.0880431 179.541954,37.6513653 179.541954,37.6513653 C179.463902,38.0888214 179.363632,38.5830246 179.220828,39.1366531 C178.804344,40.7512875 178.158992,42.3603239 177.287274,43.7759418 C175.008552,47.4764545 171.599681,49.4943576 165.016656,49.4943576 C153.415136,49.4943576 135.975601,42.7991989 112.413105,27.4116478 C84.711348,9.32094063 64.8262768,1.06064831 48.9220511,0.936756453 C41.058626,0.875501393 34.172792,2.77606438 27.9420326,6.44077387 C23.5596277,9.0183474 20.7132362,11.4512138 15.3904811,16.6008937 C15.2492846,16.7375091 15.2492846,16.7375091 15.1094201,16.8728385 C8.06264794,23.6906683 5.47570666,25.2148438 -0.0546875,25.2148438 L21.1918793,45.880382 C25.6326863,43.2639449 28.5066757,41.4794574 33.8834849,36.2773351 Z" id="Shape" fill="#000000" sketch:type="MSShapeGroup"></path>
    </g>
</svg>